<?xml version="1.0" encoding="utf-8"?>
<!-- Generator: Adobe Illustrator 16.0.0, SVG Export Plug-In . SVG Version: 6.00 Build 0)  -->
<!DOCTYPE svg PUBLIC "-//W3C//DTD SVG 1.1//EN" "http://www.w3.org/Graphics/SVG/1.1/DTD/svg11.dtd">
<svg version="1.1" id="Layer_1" xmlns="http://www.w3.org/2000/svg" xmlns:xlink="http://www.w3.org/1999/xlink" x="0px" y="0px"
	 width="500px" height="500px" viewBox="0 0 500 500" enable-background="new 0 0 500 500" xml:space="preserve">
<g>
	<path fill="#7C7C7D" stroke="#7C7C7D" stroke-miterlimit="10" d="M6.72,91l248.083,44.489L494.027,91v372.125L254.805,498
		L6.72,463.125V91z M46.742,420.956l162.254,26.896L208.574,343.4L46.742,317.039V420.956z M232.299,152.368l0.65-7.607
		l-211.83-38.525l-0.649,7.607L232.299,152.368z M232.299,181.622l0.649-7.608L21.119,135.489l-0.649,7.608L232.299,181.622z
		 M232.299,210.242l0.649-7.608l-211.83-38.525l-0.649,7.608L232.299,210.242z M232.299,242.221l0.649-7.608l-211.83-38.525
		l-0.649,7.608L232.299,242.221z M232.299,271.818l0.649-7.607l-211.83-38.525l-0.649,7.608L232.299,271.818z M232.299,297.964
		l0.649-7.608l-211.83-38.523l-0.649,7.607L232.299,297.964z M483.841,113.843l-0.649-7.607l-211.828,38.525l0.648,7.607
		L483.841,113.843z M483.841,143.097l-0.649-7.608l-211.828,38.525l0.648,7.608L483.841,143.097z M483.841,171.716l-0.649-7.608
		l-211.828,38.525l0.648,7.608L483.841,171.716z M483.841,203.696l-0.649-7.608l-211.828,38.525l0.648,7.608L483.841,203.696z
		 M483.841,233.294l-0.649-7.608l-211.828,38.525l0.648,7.607L483.841,233.294z M483.841,259.439l-0.649-7.608l-211.828,38.524
		l0.648,7.607L483.841,259.439z M483.841,286.046l-0.649-7.606l-211.828,38.524l0.648,7.607L483.841,286.046z M483.841,315.3
		l-0.649-7.608l-211.828,38.524l0.648,7.608L483.841,315.3z M483.841,343.919l-0.649-7.608l-211.828,38.525l0.648,7.607
		L483.841,343.919z M483.841,375.898l-0.649-7.608l-211.828,38.524l0.648,7.607L483.841,375.898z M483.841,405.496l-0.649-7.607
		l-211.828,38.524l0.648,7.608L483.841,405.496z M483.841,431.643l-0.649-7.608l-211.83,38.526l0.648,7.606L483.841,431.643z"/>
	<g>
		<g>
			<path fill="#7C7C7D" stroke="#7C7C7D" stroke-miterlimit="10" d="M142.622,430.585c8.542-54.866,37.006-44.786,37.006-44.786
				l-0.836,5.594c-29.702-7.875-30.576,40.028-30.576,40.028L142.622,430.585z"/>
			<g>
				<path fill="#7C7C7D" stroke="#7C7C7D" stroke-miterlimit="10" d="M182.5,387.094l2.895,1.92c0,0,6.995-3.701,9.012-16.754
					C196.424,359.209,182.5,387.094,182.5,387.094z"/>
				<path fill="#7C7C7D" stroke="#7C7C7D" stroke-miterlimit="10" d="M183.055,385.552l-0.546,3.429c0,0,6.266,4.83,18.979,1.258
					C214.202,386.666,183.055,385.552,183.055,385.552z"/>
				<path fill="#7C7C7D" stroke="#7C7C7D" stroke-miterlimit="10" d="M184.657,384.471l-2.995,1.756c0,0,0.242,7.903,11.07,15.465
					C203.561,409.251,184.657,384.471,184.657,384.471z"/>
				<path fill="#7C7C7D" stroke="#7C7C7D" stroke-miterlimit="10" d="M186.658,388.176l-3.218-1.303c0,0-6.116,5.021-5.492,18.214
					C178.573,418.277,186.658,388.176,186.658,388.176z"/>
				<path fill="#7C7C7D" stroke="#7C7C7D" stroke-miterlimit="10" d="M186.344,391.878l-0.994-3.326c0,0-7.739-1.642-17.651,7.087
					C157.788,404.366,186.344,391.878,186.344,391.878z"/>
				<path fill="#7C7C7D" stroke="#7C7C7D" stroke-miterlimit="10" d="M183.885,390.014l1.901-2.904c0,0-3.737-6.973-16.801-8.918
					C155.926,376.242,183.885,390.014,183.885,390.014z"/>
				<path fill="#7C7C7D" stroke="#7C7C7D" stroke-miterlimit="10" d="M182.929,387.889l3.044-1.668c0,0-0.015-7.912-10.626-15.777
					C164.74,362.579,182.929,387.889,182.929,387.889z"/>
			</g>
		</g>
		<g>
			<path fill="#7C7C7D" stroke="#7C7C7D" stroke-miterlimit="10" d="M120.857,423.227c14.678-41.875,28.781-53.127,28.781-53.127
				l1.139,5.541c-17.694,18.125-25.804,47.729-25.804,47.729L120.857,423.227z"/>
			<g>
				<path fill="#7C7C7D" stroke="#7C7C7D" stroke-miterlimit="10" d="M152.781,370.33l3.378,0.803c0,0,5.293-5.881,2.698-18.828
					C156.261,339.355,152.781,370.33,152.781,370.33z"/>
				<path fill="#7C7C7D" stroke="#7C7C7D" stroke-miterlimit="10" d="M152.771,368.689l0.667,3.406c0,0,7.545,2.379,18.253-5.35
					C182.399,359.02,152.771,368.689,152.771,368.689z"/>
				<path fill="#7C7C7D" stroke="#7C7C7D" stroke-miterlimit="10" d="M153.903,367.122l-2.208,2.678c0,0,2.949,7.339,15.716,10.716
					C180.179,383.889,153.903,367.122,153.903,367.122z"/>
				<path fill="#7C7C7D" stroke="#7C7C7D" stroke-miterlimit="10" d="M157.056,369.914l-3.47-0.116c0,0-4.015,6.817,1.11,18.991
					C159.821,400.959,157.056,369.914,157.056,369.914z"/>
				<path fill="#7C7C7D" stroke="#7C7C7D" stroke-miterlimit="10" d="M158.036,373.498l-2.077-2.782c0,0-7.831,1.122-14.135,12.728
					C135.52,395.049,158.036,373.498,158.036,373.498z"/>
				<path fill="#7C7C7D" stroke="#7C7C7D" stroke-miterlimit="10" d="M155.085,372.593l0.785-3.381c0,0-5.908-5.261-18.844-2.595
					C124.095,369.282,155.085,372.593,155.085,372.593z"/>
				<path fill="#7C7C7D" stroke="#7C7C7D" stroke-miterlimit="10" d="M153.457,370.926l2.285-2.613c0,0-2.736-7.424-15.405-11.158
					C127.67,353.42,153.457,370.926,153.457,370.926z"/>
			</g>
		</g>
	</g>
	<g>
		<g>
			<path fill="#7C7C7D" stroke="#7C7C7D" stroke-miterlimit="10" d="M91.749,421.318c0,0,13.18-46.063-17.526-47.225l0.837-5.593
				c0,0,30.168-1.31,22.282,53.653L91.749,421.318z"/>
			<g>
				<path fill="#7C7C7D" stroke="#7C7C7D" stroke-miterlimit="10" d="M71.935,368.9l-3.329,0.985c0,0-5.605-5.586-3.716-18.655
					C66.779,338.162,71.935,368.9,71.935,368.9z"/>
				<path fill="#7C7C7D" stroke="#7C7C7D" stroke-miterlimit="10" d="M71.855,367.264l-0.481,3.438c0,0-7.405,2.785-18.517-4.352
					C41.746,359.214,71.855,367.264,71.855,367.264z"/>
				<path fill="#7C7C7D" stroke="#7C7C7D" stroke-miterlimit="10" d="M70.64,365.76l2.35,2.555c0,0-2.545,7.488-15.112,11.551
					C45.313,383.926,70.64,365.76,70.64,365.76z"/>
				<path fill="#7C7C7D" stroke="#7C7C7D" stroke-miterlimit="10" d="M67.643,368.718l3.458-0.304c0,0,4.379,6.59-0.078,19.023
					C66.566,399.867,67.643,368.718,67.643,368.718z"/>
				<path fill="#7C7C7D" stroke="#7C7C7D" stroke-miterlimit="10" d="M66.859,372.35l1.924-2.891c0,0,7.88,0.696,14.805,11.941
					C90.512,392.646,66.859,372.35,66.859,372.35z"/>
				<path fill="#7C7C7D" stroke="#7C7C7D" stroke-miterlimit="10" d="M69.757,371.287l-0.968-3.334c0,0,5.614-5.574,18.675-3.613
					C100.521,366.299,69.757,371.287,69.757,371.287z"/>
				<path fill="#7C7C7D" stroke="#7C7C7D" stroke-miterlimit="10" d="M71.292,369.533l-2.423-2.485c0,0,2.329-7.563,14.777-11.978
					C96.091,350.654,71.292,369.533,71.292,369.533z"/>
			</g>
		</g>
		<g>
			<path fill="#7C7C7D" stroke="#7C7C7D" stroke-miterlimit="10" d="M116.33,420.42c0,0,0.907-30.682-10.708-53.189l2.709-4.965
				c0,0,10.194,14.887,11.977,59.224L116.33,420.42z"/>
			<g>
				<path fill="#7C7C7D" stroke="#7C7C7D" stroke-miterlimit="10" d="M105.259,361.566l-3.466-0.223c0,0-3.342-7.172,2.929-18.795
					C110.994,330.929,105.259,361.566,105.259,361.566z"/>
				<path fill="#7C7C7D" stroke="#7C7C7D" stroke-miterlimit="10" d="M105.748,360.001l-1.634,3.062c0,0-7.912,0.066-15.89-10.455
					C80.246,342.083,105.748,360.001,105.748,360.001z"/>
				<path fill="#7C7C7D" stroke="#7C7C7D" stroke-miterlimit="10" d="M105.123,358.17l1.329,3.207c0,0-4.967,6.155-18.163,5.646
					C75.093,366.514,105.123,358.17,105.123,358.17z"/>
				<path fill="#7C7C7D" stroke="#7C7C7D" stroke-miterlimit="10" d="M101.292,359.917l3.352,0.903c0,0,1.845,7.693-6.618,17.836
					C89.564,388.795,101.292,359.917,101.292,359.917z"/>
				<path fill="#7C7C7D" stroke="#7C7C7D" stroke-miterlimit="10" d="M99.307,363.057l2.801-2.053c0,0,7.16,3.364,9.792,16.309
					C114.532,390.252,99.307,363.057,99.307,363.057z"/>
				<path fill="#7C7C7D" stroke="#7C7C7D" stroke-miterlimit="10" d="M102.393,363.057l0.238-3.464c0,0,7.189-3.303,18.778,3.032
					C132.995,368.958,102.393,363.057,102.393,363.057z"/>
				<path fill="#7C7C7D" stroke="#7C7C7D" stroke-miterlimit="10" d="M104.438,361.938l-1.42-3.168c0,0,4.789-6.297,17.996-6.162
					C134.218,352.742,104.438,361.938,104.438,361.938z"/>
			</g>
		</g>
	</g>
</g>
</svg>
