<?xml version="1.0" encoding="utf-8"?>
<!-- Generator: Adobe Illustrator 16.0.0, SVG Export Plug-In . SVG Version: 6.00 Build 0)  -->
<!DOCTYPE svg PUBLIC "-//W3C//DTD SVG 1.1//EN" "http://www.w3.org/Graphics/SVG/1.1/DTD/svg11.dtd">
<svg version="1.1" id="Layer_1" xmlns="http://www.w3.org/2000/svg" xmlns:xlink="http://www.w3.org/1999/xlink" x="0px" y="0px"
	 width="80px" height="80px" viewBox="0 0 80 80" enable-background="new 0 0 80 80" xml:space="preserve">
<text transform="matrix(1 0 0 1 4.9937 34.3037)" fill="#939598" font-family="'OratorStd'" font-size="27.6583">NO</text>
<text transform="matrix(1 0 0 1 4.9946 61.4033)" fill="#939598" font-family="'OratorStd'" font-size="24">IMAGE</text>
<g>
	<g>
		<path fill="#939598" d="M50.693,21.828c1.612,0,1.612-2.5,0-2.5S49.081,21.828,50.693,21.828L50.693,21.828z"/>
	</g>
</g>
<g>
	<g>
		<path fill="#939598" d="M62.941,21.828c1.612,0,1.612-2.5,0-2.5S61.329,21.828,62.941,21.828L62.941,21.828z"/>
	</g>
</g>
<g>
	<g>
		<path fill="#939598" d="M47.695,33.804c1.161-10.578,17.601-9.881,18.247,0.5c0.06,0.96,1.561,0.966,1.5,0
			c-0.767-12.317-19.873-13.016-21.247-0.5C46.09,34.765,47.591,34.754,47.695,33.804L47.695,33.804z"/>
	</g>
</g>
</svg>
