<?xml version="1.0" encoding="utf-8"?>
<!-- Generator: Adobe Illustrator 16.0.0, SVG Export Plug-In . SVG Version: 6.00 Build 0)  -->
<!DOCTYPE svg PUBLIC "-//W3C//DTD SVG 1.1//EN" "http://www.w3.org/Graphics/SVG/1.1/DTD/svg11.dtd">
<svg version="1.1" id="Layer_1" xmlns="http://www.w3.org/2000/svg" xmlns:xlink="http://www.w3.org/1999/xlink" x="0px" y="0px"
	 width="500px" height="500px" viewBox="0 0 500 500" enable-background="new 0 0 500 500" xml:space="preserve">
<g>
	<path fill="#7C7C7D" stroke="#7C7C7D" stroke-miterlimit="10" d="M462.591,220.612c0,82.841-67.156,149.998-150,149.998
		c-37.43,0-71.659-13.709-97.937-36.383c-4.971-4.287-9.657-8.896-14.026-13.795c-23.657-26.516-38.036-61.488-38.036-99.82
		c0-82.841,67.157-149.999,149.998-149.999C395.435,70.613,462.591,137.77,462.591,220.612z M312.591,86.881
		c-73.855,0-133.729,59.874-133.729,133.73c0,73.857,59.874,133.73,133.729,133.73c73.86,0,133.731-59.873,133.731-133.73
		C446.322,146.755,386.451,86.881,312.591,86.881z"/>
	<polyline fill="#7C7C7D" stroke="#7C7C7D" stroke-miterlimit="10" points="214.655,334.225 57.262,498 37.41,478.146 
		200.64,320.432 	"/>
</g>
</svg>
